<svg version="1.2" xmlns="http://www.w3.org/2000/svg" viewBox="0 0 1406 207" width="1406" height="207"><style>.a{fill:#123b6a}</style><path fill-rule="evenodd" d="m463.1 77.9c0 25.5-19.2 41.4-49.8 41.4h-23.1v31.7h-26.6v-114.7h49.7c30.6 0 49.8 15.9 49.8 41.6zm-26.9 0c0-12.6-8.2-20-24.4-20h-21.6v39.8h21.6c16.2 0 24.4-7.4 24.4-19.8z"/><path  d="m583.8 36.3v114.7h-26.5v-47.1h-52.1v47.1h-26.6v-114.7h26.6v45.2h52.1v-45.2z"/><path fill-rule="evenodd" d="m607.7 36.3h52.1c37.5 0 63.3 22.6 63.3 57.3 0 34.8-25.8 57.4-63.3 57.4h-52.1zm50.8 92.8c22.8 0.1 37.7-13.5 37.7-35.5 0-21.9-14.9-35.5-37.7-35.5h-24.2v71.1z"/><path  d="m799.3 46.8h-40.3v-10.5h92.7v10.5h-40.3v104.1h-12.1v-104.1z"/><path fill-rule="evenodd" d="m925.9 111.5h-72.1c1.3 18 15.1 29.9 33.9 29.9 10.5 0 19.8-3.7 26.4-11.3l6.5 7.6c-7.7 9.2-19.6 14.1-33.2 14.1-26.9 0-45.3-18.4-45.3-43.9 0-25.6 17.9-43.8 42.1-43.8 24.3 0 41.8 17.9 41.8 43.8 0 0.9-0.1 2.3-0.1 3.6zm-72.1-8.7h61.1c-1.5-16.9-13.8-28.7-30.6-28.7-16.8 0-29 11.8-30.5 28.7z"/><path  d="m973 107.7l-20.3 18.7v24.5h-11.6v-121.5h11.6v82.4l51.4-47h14.4l-36.8 35.2 40.3 50.9h-14.3z"/><path  d="m1108.7 101v50h-11.6v-48.9c0-18.1-9.5-27.5-25.9-27.5-18.5 0-30.1 11.5-30.1 31.1v45.3h-11.6v-86.2h11.1v15.9c6.2-10.5 17.9-16.6 32.8-16.6 20.9 0 35.3 12.2 35.3 36.9z"/><path fill-rule="evenodd" d="m1123.3 107.9c0-25.6 18.7-43.8 43.9-43.8 25.2 0 43.7 18.2 43.7 43.8 0 25.5-18.5 43.9-43.7 43.9-25.3 0-43.9-18.4-43.9-43.9zm75.8 0c0-20.2-13.6-33.6-31.9-33.6-18.4 0-32.1 13.4-32.1 33.6 0 20.1 13.7 33.5 32.1 33.5 18.3 0 31.9-13.4 31.9-33.5z"/><path  d="m1225.9 29.4h11.7v121.6h-11.7z"/><path fill-rule="evenodd" d="m1252.6 107.9c0-25.6 18.7-43.8 43.9-43.8 25.2 0 43.7 18.2 43.7 43.8 0 25.5-18.5 43.9-43.7 43.9-25.2 0-43.9-18.4-43.9-43.9zm75.8 0c0-20.2-13.6-33.6-31.9-33.6-18.4 0-32.1 13.4-32.1 33.6 0 20.1 13.7 33.5 32.1 33.5 18.3 0 31.9-13.4 31.9-33.5z"/><path  d="m1324.3 178l4.1-8.9c3.4 3 8 4.5 13.4 4.5 9.2 0 14.3-5.6 14.3-16.3v-92.5h11.6v92.5c0 15.9-8.9 26.3-25.2 26.3-6.9 0-14-1.8-18.2-5.6zm29.1-140.4c0-4.4 3.8-8.2 8.6-8.2 4.7 0 8.5 3.6 8.5 8 0 4.8-3.6 8.6-8.5 8.6-4.8-0.1-8.6-3.8-8.6-8.4z"/><path  d="m1389.3 37.3c0-4.5 3.5-7.9 7.9-7.9 4.4 0 7.9 3.4 7.9 7.9 0 4.4-3.5 7.8-7.9 7.8-4.4 0-7.9-3.4-7.9-7.8zm2 26.8h11.6v86.9l-11.6 0.8z"/><path fill-rule="evenodd" class="a" d="m22.4 132.6c-1.5 0.7-3.1 1.1-4.8 1.1-1.8 0-3.5-0.4-5-1.1-10.4 8.1-4.7 22.4-0.9 31.6 4 9.4 1.8 19.3 1.8 19.3 24.8-28.3 12.2-46.9 8.9-50.9z"/><path class="a" d="m17.6 128.3c-3 0-5.5-2.5-5.5-5.5 0-3 2.5-5.4 5.5-5.4 3 0 5.5 2.4 5.5 5.4 0 3-2.5 5.5-5.5 5.5z"/><path fill-rule="evenodd" class="a" d="m20.9 112.4v-40.8l-6.6-2.2v43q1.6-0.5 3.3-0.5 1.7 0 3.3 0.5z"/><path fill-rule="evenodd" class="a" d="m242.3 174.5l-90.2 30.7c-2.1 0.7-4.9 1-7.7 1-2.8 0-5.5-0.3-7.7-1l-90.2-30.7c-4.2-1.5-4.2-3.8 0-5.2l42.9-14.6 47.3 16.1c2.2 0.7 5 1.1 7.7 1.1 2.8 0 5.6-0.4 7.7-1.1l47.4-16.1 42.8 14.6c4.3 1.4 4.3 3.7 0 5.2z"/><path fill-rule="evenodd" class="a" d="m242.3 120.5l-43.8 14.9-46.4 15.8c-2.1 0.7-4.9 1-7.7 1-2.8 0-5.5-0.3-7.7-1l-46.4-15.8-43.8-14.9c-4.2-1.5-4.2-3.8 0-5.3l42.9-14.5 47.3 16.1c2.2 0.7 4.9 1.1 7.7 1.1 2.8 0 5.6-0.4 7.7-1.1l47.4-16.1 42.8 14.5c4.3 1.5 4.3 3.8 0 5.3z"/><path fill-rule="evenodd" class="a" d="m284.3 52.8l-128.9 43.9c-3 1-7 1.5-11 1.5-4 0-7.9-0.5-11-1.5l-128.8-43.9c-6.1-2-6.1-5.4 0-7.4l128.9-43.8c3-1.1 6.9-1.6 10.9-1.6 4 0 8 0.5 11 1.6l128.9 43.8c6.1 2 6.1 5.4 0 7.4z"/></svg>